<svg width="512" height="512" viewBox="0 0 512 512" fill="none" xmlns="http://www.w3.org/2000/svg" role="img" aria-labelledby="title desc">
  <title id="title">TableLink logo</title>
  <desc id="desc">A table-shaped mark combining a QR code, dining plate, and link symbol.</desc>
  <rect width="512" height="512" rx="104" fill="#FFF8EF"/>
  <rect x="72" y="82" width="368" height="286" rx="46" fill="#1F3A3D"/>
  <rect x="104" y="116" width="304" height="218" rx="28" fill="#FFF8EF"/>
  <path d="M118 393H394" stroke="#1F3A3D" stroke-width="34" stroke-linecap="round"/>
  <path d="M157 393V438" stroke="#1F3A3D" stroke-width="30" stroke-linecap="round"/>
  <path d="M355 393V438" stroke="#1F3A3D" stroke-width="30" stroke-linecap="round"/>
  <rect x="134" y="146" width="62" height="62" rx="12" fill="#D9472B"/>
  <rect x="148" y="160" width="34" height="34" rx="6" fill="#FFF8EF"/>
  <rect x="316" y="146" width="62" height="62" rx="12" fill="#D9472B"/>
  <rect x="330" y="160" width="34" height="34" rx="6" fill="#FFF8EF"/>
  <rect x="134" y="246" width="62" height="62" rx="12" fill="#D9472B"/>
  <rect x="148" y="260" width="34" height="34" rx="6" fill="#FFF8EF"/>
  <rect x="218" y="148" width="28" height="28" rx="7" fill="#1F3A3D"/>
  <rect x="258" y="148" width="28" height="28" rx="7" fill="#1F3A3D"/>
  <rect x="218" y="188" width="68" height="28" rx="7" fill="#1F3A3D"/>
  <rect x="218" y="246" width="28" height="28" rx="7" fill="#1F3A3D"/>
  <rect x="258" y="246" width="28" height="28" rx="7" fill="#1F3A3D"/>
  <rect x="298" y="246" width="28" height="28" rx="7" fill="#1F3A3D"/>
  <rect x="258" y="286" width="68" height="28" rx="7" fill="#1F3A3D"/>
  <path d="M220 231C238 211 274 211 292 231" stroke="#D9472B" stroke-width="20" stroke-linecap="round"/>
  <path d="M292 231C274 251 238 251 220 231" stroke="#D9472B" stroke-width="20" stroke-linecap="round"/>
  <circle cx="256" cy="231" r="13" fill="#1F3A3D"/>
  <path d="M396 335C423 345 438 361 438 383C438 410 415 431 384 431C365 431 348 423 337 410" stroke="#D9472B" stroke-width="24" stroke-linecap="round"/>
  <path d="M116 335C89 345 74 361 74 383C74 410 97 431 128 431C147 431 164 423 175 410" stroke="#D9472B" stroke-width="24" stroke-linecap="round"/>
</svg>
