<svg width="512" height="512" viewBox="0 0 512 512" fill="none" xmlns="http://www.w3.org/2000/svg" role="img" aria-labelledby="title desc">
  <title id="title">TableLink logo</title>
  <desc id="desc">A modern technology-style restaurant floor plan mark with scan corners and connected tables.</desc>
  <defs>
    <linearGradient id="bg" x1="74" y1="56" x2="438" y2="456" gradientUnits="userSpaceOnUse">
      <stop stop-color="#102B34"/>
      <stop offset="1" stop-color="#071114"/>
    </linearGradient>
    <linearGradient id="accent" x1="132" y1="128" x2="380" y2="384" gradientUnits="userSpaceOnUse">
      <stop stop-color="#66F6FF"/>
      <stop offset="1" stop-color="#24D39A"/>
    </linearGradient>
  </defs>
  <rect x="32" y="32" width="448" height="448" rx="104" fill="url(#bg)"/>
  <path d="M128 170V128H210" stroke="url(#accent)" stroke-width="22" stroke-linecap="round" stroke-linejoin="round"/>
  <path d="M384 170V128H302" stroke="url(#accent)" stroke-width="22" stroke-linecap="round" stroke-linejoin="round"/>
  <path d="M128 342V384H210" stroke="url(#accent)" stroke-width="22" stroke-linecap="round" stroke-linejoin="round"/>
  <path d="M384 342V384H302" stroke="url(#accent)" stroke-width="22" stroke-linecap="round" stroke-linejoin="round"/>
  <rect x="132" y="154" width="248" height="204" rx="28" stroke="#F7FBF8" stroke-width="18"/>
  <path d="M256 166V346" stroke="url(#accent)" stroke-width="14" stroke-linecap="round"/>
  <path d="M144 256H368" stroke="url(#accent)" stroke-width="14" stroke-linecap="round"/>
  <rect x="164" y="186" width="54" height="54" rx="16" fill="#F7FBF8"/>
  <rect x="294" y="186" width="54" height="54" rx="16" fill="#F7FBF8"/>
  <rect x="164" y="272" width="54" height="54" rx="16" fill="#F7FBF8"/>
  <rect x="294" y="272" width="54" height="54" rx="16" fill="#F7FBF8"/>
  <circle cx="191" cy="213" r="10" fill="#071114"/>
  <circle cx="321" cy="213" r="10" fill="#071114"/>
  <circle cx="191" cy="299" r="10" fill="#071114"/>
  <circle cx="321" cy="299" r="10" fill="#071114"/>
  <rect x="231" y="231" width="50" height="50" rx="14" fill="url(#accent)"/>
  <circle cx="256" cy="256" r="9" fill="#071114"/>
</svg>
